# xmcd
#
# Track frame offsets:
#	150
#	18725
#	40133
#	62340
#	80597
#	97598
#	121129
#	140746
#	163454
#	180150
#	201199
#	218620
#
# Disc length: 3148 seconds
#
# Revision: 0
# Processed by: cddbd v1.5.1PL2 Copyright (c) Steve Scherf et al.
# Submitted via: EasyCDDAExtractor 9.1.0.1
#
DISCID=9b0c4a0c
DTITLE=Plan B - Who Needs Action When You Got Words (UK Promo Advance)
DYEAR=2006
DGENRE=UK Hip Hop
TTITLE0=Kidz
TTITLE1=Sick 2 Def
TTITLE2=No Good
TTITLE3=Mama
TTITLE4=Charmaine
TTITLE5=I Don't Hate You
TTITLE6=Everyday
TTITLE7=Tough Love
TTITLE8=Where Ya From
TTITLE9=No More Eatin
TTITLE10=Missin Links
TTITLE11=Who Needs Action
EXTD=
EXTT0=
EXTT1=
EXTT2=
EXTT3=
EXTT4=
EXTT5=
EXTT6=
EXTT7=
EXTT8=
EXTT9=
EXTT10=
EXTT11=
PLAYORDER=
